<svg baseProfile="tiny" viewBox="0 0 32 32" xml:space="preserve" xmlns="http://www.w3.org/2000/svg"><path d="m19.241 11.77-1.412 1.412A3.991 3.991 0 0 1 19 16.011a3.984 3.984 0 0 1-1.172 2.828l1.412 1.412c1.087-1.086 1.76-2.586 1.76-4.24s-.673-3.154-1.759-4.241z" fill="#ffffff" class="fill-000000"></path><path d="m22.068 8.943-1.411 1.411C22.105 11.802 23 13.802 23 16.011s-.895 4.209-2.343 5.657l1.411 1.411C23.879 21.268 25 18.768 25 16.011s-1.121-5.257-2.932-7.068zM14 9.822v12.343L9.329 17H8v-1.989h1.329L14 9.822M16 7h-2.009L8.5 13.011H6V19h2.5l5.505 6H16V7z" fill="#ffffff" class="fill-000000"></path></svg>